<svg width="428" height="733" viewBox="0 0 428 733" fill="none" xmlns="http://www.w3.org/2000/svg">
<path d="M508 370.716L434.772 370.716M434.772 370.716L341.968 370.716M434.772 370.716L434.772 463.576M434.772 370.716L434.772 277.855M341.968 370.716L249.164 370.716M341.968 370.716L341.968 463.576M341.968 370.716L341.968 277.855M249.164 370.716L156.36 370.716M249.164 370.716L249.164 463.576M249.164 370.716L249.164 277.855M156.36 370.716L63.5561 370.716M156.36 370.716L156.36 463.576M156.36 370.716L156.36 277.855M63.5561 370.716L-29.2478 370.716M63.5561 370.716L63.5561 463.576M63.5561 370.716L63.5561 277.855M-29.2478 370.716L-79.2749 370.716M-29.2478 370.716L-29.2478 463.576M-29.2478 370.716L-29.2478 277.855M508 463.576L434.772 463.576M434.772 463.576L341.968 463.576M434.772 463.576L434.772 556.436M341.968 463.576L249.164 463.576M341.968 463.576L341.968 556.436M249.164 463.576L156.36 463.576M249.164 463.576L249.164 556.436M156.36 463.576L63.5561 463.576M156.36 463.576L156.36 556.436M63.5561 463.576L-29.2478 463.576M63.5561 463.576L63.5561 556.436M-29.2478 463.576L-79.275 463.576M-29.2478 463.576L-29.2478 556.436M508 556.436L434.772 556.436M434.772 556.436L341.968 556.436M434.772 556.436L434.772 649.296M341.968 556.436L249.164 556.436M341.968 556.436L341.968 649.296M249.164 556.436L156.36 556.436M249.164 556.436L249.164 649.296M156.36 556.436L63.5561 556.436M156.36 556.436L156.36 649.296M63.5561 556.436L-29.2478 556.436M63.5561 556.436L63.5561 649.296M-29.2478 556.436L-79.275 556.436M-29.2478 556.436L-29.2478 649.296M508 649.296L434.772 649.296M434.772 649.296L341.968 649.296M434.772 649.296L434.772 731.275M341.968 649.296L249.164 649.296M341.968 649.296L341.968 731.275M249.164 649.296L156.36 649.296M249.164 649.296L249.164 731.275M156.36 649.296L63.5561 649.296M156.36 649.296L156.36 731.275M63.5561 649.296L-29.2478 649.296M63.5561 649.296L63.5561 731.275M-29.2478 649.296L-79.275 649.296M-29.2478 649.296L-29.2478 731.275M508 277.855L434.772 277.855M434.772 277.855L341.968 277.855M434.772 277.855L434.772 184.995M341.968 277.855L249.164 277.855M341.968 277.855L341.968 184.995M249.164 277.855L156.36 277.855M249.164 277.855L249.164 184.995M156.36 277.855L63.5561 277.855M156.36 277.855L156.36 184.995M63.5561 277.855L-29.2478 277.855M63.5561 277.855L63.5561 184.995M-29.2478 277.855L-79.2749 277.855M-29.2478 277.855L-29.2478 184.995M508 184.995L434.772 184.995M434.772 184.995L341.968 184.995M434.772 184.995L434.772 92.1348M341.968 184.995L249.164 184.995M341.968 184.995L341.968 92.1348M249.164 184.995L156.36 184.995M249.164 184.995L249.164 92.1348M156.36 184.995L63.5561 184.995M156.36 184.995L156.36 92.1348M63.5561 184.995L-29.2478 184.995M63.5561 184.995L63.5561 92.1348M-29.2478 184.995L-79.2749 184.995M-29.2478 184.995L-29.2478 92.1348M508 92.1348L434.772 92.1348M434.772 92.1348L341.968 92.1348M434.772 92.1348L434.772 2.73167e-05M341.968 92.1348L249.164 92.1348M341.968 92.1348L341.968 2.32601e-05M249.164 92.1348L156.36 92.1348M249.164 92.1348L249.164 1.92035e-05M156.36 92.1348L63.5561 92.1348M156.36 92.1348L156.36 1.51469e-05M63.5561 92.1348L-29.2478 92.1348M63.5561 92.1348L63.5561 1.10903e-05M-29.2478 92.1348L-79.2749 92.1348M-29.2478 92.1348L-29.2478 7.03373e-06M508 0.725501L-79.2749 0.725476M508 732L-79.275 732M507.275 731.275L507.275 3.04859e-05M-80 731.275L-80 4.81528e-06" stroke="#FFB744" stroke-opacity="0.65"/>
</svg>
